<svg xmlns="http://www.w3.org/2000/svg" viewBox="0 0 800 600" fill="none">
  <!-- Background -->
  <rect width="800" height="600" fill="#F0F4F8"/>

  <!-- Barber pole -->
  <rect x="680" y="80" width="40" height="380" rx="20" fill="#FFFFFF" stroke="#DDDDDD" strokeWidth="2"/>
  <clipPath id="poleClip">
    <rect x="680" y="80" width="40" height="380" rx="20"/>
  </clipPath>
  <g clipPath="url(#poleClip)">
    <path d="M680 80 L720 120 L720 160 L680 120 Z" fill="#E63946"/>
    <path d="M680 120 L720 160 L720 200 L680 160 Z" fill="#FFFFFF"/>
    <path d="M680 160 L720 200 L720 240 L680 200 Z" fill="#2196F3"/>
    <path d="M680 200 L720 240 L720 280 L680 240 Z" fill="#E63946"/>
    <path d="M680 240 L720 280 L720 320 L680 280 Z" fill="#FFFFFF"/>
    <path d="M680 280 L720 320 L720 360 L680 320 Z" fill="#2196F3"/>
    <path d="M680 320 L720 360 L720 400 L680 360 Z" fill="#E63946"/>
    <path d="M680 360 L720 400 L720 440 L680 400 Z" fill="#FFFFFF"/>
    <path d="M680 400 L720 440 L720 460 L680 440 Z" fill="#2196F3"/>
  </g>
  <ellipse cx="700" cy="80" rx="20" ry="8" fill="#CCCCCC"/>
  <ellipse cx="700" cy="460" rx="20" ry="8" fill="#CCCCCC"/>

  <!-- Shop front -->
  <rect x="80" y="150" width="520" height="360" rx="12" fill="#FFFFFF" stroke="#E0E0E0" strokeWidth="2"/>

  <!-- Shop window -->
  <rect x="120" y="200" width="440" height="220" rx="8" fill="#E8F4FD"/>
  <line x1="340" y1="200" x2="340" y2="420" stroke="#BBBBBB" strokeWidth="3"/>
  <line x1="120" y1="310" x2="560" y2="310" stroke="#BBBBBB" strokeWidth="3"/>

  <!-- Barber chair (seen through window) -->
  <!-- Chair base -->
  <rect x="270" y="370" width="100" height="12" rx="6" fill="#4A4A6A"/>
  <rect x="310" y="340" width="20" height="30" fill="#4A4A6A"/>
  <!-- Chair seat -->
  <rect x="255" y="310" width="130" height="35" rx="8" fill="#8B1A2E"/>
  <!-- Chair back -->
  <rect x="265" y="240" width="110" height="75" rx="8" fill="#8B1A2E"/>
  <!-- Headrest -->
  <rect x="295" y="225" width="50" height="20" rx="6" fill="#8B1A2E"/>
  <!-- Armrests -->
  <rect x="245" y="315" width="20" height="8" rx="4" fill="#6A1420"/>
  <rect x="375" y="315" width="20" height="8" rx="4" fill="#6A1420"/>

  <!-- Customer in chair (simplified silhouette) -->
  <circle cx="320" cy="235" r="28" fill="#F5C5A3"/>
  <!-- Cape -->
  <path d="M275 280 Q320 300 365 280 L370 345 Q320 360 270 345 Z" fill="#FFFFFF" stroke="#DDDDDD" strokeWidth="1"/>

  <!-- Barber (Yossi) -->
  <circle cx="450" cy="255" r="30" fill="#D4A574"/>
  <rect x="428" y="285" width="44" height="70" rx="6" fill="#2D2D4A"/>
  <!-- Barber arm with scissors -->
  <rect x="468" y="295" width="55" height="8" rx="4" fill="#2D2D4A"/>
  <!-- Scissors -->
  <path d="M520 285 L535 305 M520 305 L535 285" stroke="#B8B8B8" strokeWidth="3" strokeLinecap="round"/>
  <circle cx="518" cy="288" r="5" fill="none" stroke="#B8B8B8" strokeWidth="2"/>
  <circle cx="518" cy="302" r="5" fill="none" stroke="#B8B8B8" strokeWidth="2"/>

  <!-- Hair clippings -->
  <path d="M300 265 Q305 258 310 265" stroke="#5A3A1A" strokeWidth="1.5" fill="none"/>
  <path d="M315 260 Q322 253 328 260" stroke="#5A3A1A" strokeWidth="1.5" fill="none"/>
  <path d="M330 267 Q336 260 342 267" stroke="#5A3A1A" strokeWidth="1.5" fill="none"/>

  <!-- Mirror on wall (reflected) -->
  <rect x="140" y="220" width="120" height="170" rx="4" fill="#D8EAF5" stroke="#AAAAAA" strokeWidth="2"/>

  <!-- Shop sign -->
  <rect x="150" y="155" width="380" height="50" rx="8" fill="#2D2D4A"/>
  <text x="340" y="188" textAnchor="middle" fontFamily="serif" fontSize="20" fill="#FFFFFF">הספר של יוסי ✂</text>

  <!-- Floor tiles -->
  <rect x="80" y="480" width="520" height="30" rx="4" fill="#E8E8E8"/>
  <line x1="160" y1="480" x2="160" y2="510" stroke="#CCCCCC" strokeWidth="1"/>
  <line x1="240" y1="480" x2="240" y2="510" stroke="#CCCCCC" strokeWidth="1"/>
  <line x1="320" y1="480" x2="320" y2="510" stroke="#CCCCCC" strokeWidth="1"/>
  <line x1="400" y1="480" x2="400" y2="510" stroke="#CCCCCC" strokeWidth="1"/>
  <line x1="480" y1="480" x2="480" y2="510" stroke="#CCCCCC" strokeWidth="1"/>
  <line x1="560" y1="480" x2="560" y2="510" stroke="#CCCCCC" strokeWidth="1"/>

  <!-- Shelf with products -->
  <rect x="140" y="410" width="160" height="12" rx="3" fill="#AAAAAA"/>
  <rect x="148" y="378" width="25" height="32" rx="4" fill="#E63946"/>
  <rect x="178" y="372" width="20" height="38" rx="4" fill="#2196F3"/>
  <rect x="203" y="382" width="22" height="28" rx="4" fill="#4CAF50"/>
  <rect x="230" y="376" width="18" height="34" rx="4" fill="#FF9800"/>
  <rect x="253" y="385" width="22" height="25" rx="4" fill="#9C27B0"/>

  <!-- Star rating -->
  <text x="340" y="540" textAnchor="middle" fontFamily="sans-serif" fontSize="28" fill="#FFB800">★★★★★</text>
</svg>
