<svg xmlns="http://www.w3.org/2000/svg" viewBox="0 0 800 600" fill="none">
  <!-- Background -->
  <rect width="800" height="600" fill="#FFF0F5"/>

  <!-- Marble texture bg -->
  <rect x="0" y="0" width="800" height="600" fill="#FDF6F9"/>
  <path d="M0 100 Q200 90 400 110 Q600 130 800 100" stroke="#F8E8F0" strokeWidth="30" fill="none" opacity="0.5"/>
  <path d="M0 250 Q200 230 500 260 Q650 270 800 250" stroke="#F8E8F0" strokeWidth="20" fill="none" opacity="0.4"/>

  <!-- Gold accent lines -->
  <line x1="0" y1="580" x2="800" y2="580" stroke="#C9A96E" strokeWidth="3"/>
  <line x1="0" y1="574" x2="800" y2="574" stroke="#C9A96E" strokeWidth="1"/>

  <!-- Vanity mirror (large, Hollywood style) -->
  <rect x="250" y="50" width="300" height="360" rx="150" fill="#2C2C2C"/>
  <rect x="260" y="60" width="280" height="340" rx="140" fill="#F5E8EE"/>
  <!-- Mirror frame with bulbs -->
  <!-- Top bulbs -->
  <circle cx="320" cy="55" r="10" fill="#FFFDE7"/>
  <circle cx="320" cy="55" r="7" fill="#FFD700" opacity="0.8"/>
  <circle cx="356" cy="46" r="10" fill="#FFFDE7"/>
  <circle cx="356" cy="46" r="7" fill="#FFD700" opacity="0.8"/>
  <circle cx="400" cy="43" r="10" fill="#FFFDE7"/>
  <circle cx="400" cy="43" r="7" fill="#FFD700" opacity="0.8"/>
  <circle cx="444" cy="46" r="10" fill="#FFFDE7"/>
  <circle cx="444" cy="46" r="7" fill="#FFD700" opacity="0.8"/>
  <circle cx="480" cy="55" r="10" fill="#FFFDE7"/>
  <circle cx="480" cy="55" r="7" fill="#FFD700" opacity="0.8"/>
  <!-- Side bulbs left -->
  <circle cx="260" cy="100" r="9" fill="#FFFDE7"/>
  <circle cx="260" cy="100" r="6" fill="#FFD700" opacity="0.8"/>
  <circle cx="254" cy="140" r="9" fill="#FFFDE7"/>
  <circle cx="254" cy="140" r="6" fill="#FFD700" opacity="0.8"/>
  <circle cx="252" cy="180" r="9" fill="#FFFDE7"/>
  <circle cx="252" cy="180" r="6" fill="#FFD700" opacity="0.8"/>
  <circle cx="254" cy="220" r="9" fill="#FFFDE7"/>
  <circle cx="254" cy="220" r="6" fill="#FFD700" opacity="0.8"/>
  <circle cx="260" cy="260" r="9" fill="#FFFDE7"/>
  <circle cx="260" cy="260" r="6" fill="#FFD700" opacity="0.8"/>
  <circle cx="270" cy="295" r="9" fill="#FFFDE7"/>
  <circle cx="270" cy="295" r="6" fill="#FFD700" opacity="0.8"/>
  <!-- Side bulbs right -->
  <circle cx="540" cy="100" r="9" fill="#FFFDE7"/>
  <circle cx="540" cy="100" r="6" fill="#FFD700" opacity="0.8"/>
  <circle cx="546" cy="140" r="9" fill="#FFFDE7"/>
  <circle cx="546" cy="140" r="6" fill="#FFD700" opacity="0.8"/>
  <circle cx="548" cy="180" r="9" fill="#FFFDE7"/>
  <circle cx="548" cy="180" r="6" fill="#FFD700" opacity="0.8"/>
  <circle cx="546" cy="220" r="9" fill="#FFFDE7"/>
  <circle cx="546" cy="220" r="6" fill="#FFD700" opacity="0.8"/>
  <circle cx="540" cy="260" r="9" fill="#FFFDE7"/>
  <circle cx="540" cy="260" r="6" fill="#FFD700" opacity="0.8"/>
  <circle cx="530" cy="295" r="9" fill="#FFFDE7"/>
  <circle cx="530" cy="295" r="6" fill="#FFD700" opacity="0.8"/>
  <!-- Bottom bulbs -->
  <circle cx="320" cy="352" r="9" fill="#FFFDE7"/>
  <circle cx="320" cy="352" r="6" fill="#FFD700" opacity="0.8"/>
  <circle cx="356" cy="363" r="9" fill="#FFFDE7"/>
  <circle cx="356" cy="363" r="6" fill="#FFD700" opacity="0.8"/>
  <circle cx="400" cy="367" r="9" fill="#FFFDE7"/>
  <circle cx="400" cy="367" r="6" fill="#FFD700" opacity="0.8"/>
  <circle cx="444" cy="363" r="9" fill="#FFFDE7"/>
  <circle cx="444" cy="363" r="6" fill="#FFD700" opacity="0.8"/>
  <circle cx="480" cy="352" r="9" fill="#FFFDE7"/>
  <circle cx="480" cy="352" r="6" fill="#FFD700" opacity="0.8"/>

  <!-- Reflection in mirror (woman's face) -->
  <circle cx="400" cy="200" r="75" fill="#F8D5B5"/>
  <!-- Hair -->
  <path d="M330 185 Q338 130 370 120 Q400 115 430 120 Q462 130 470 185 Q478 220 460 240 Q430 255 400 250 Q370 255 340 240 Q322 220 330 185Z" fill="#2C1810"/>
  <!-- Side hair -->
  <path d="M335 200 Q320 225 325 270" stroke="#2C1810" strokeWidth="22" strokeLinecap="round" fill="none"/>
  <path d="M465 200 Q480 225 475 270" stroke="#2C1810" strokeWidth="22" strokeLinecap="round" fill="none"/>
  <!-- Eyes (dramatic makeup) -->
  <ellipse cx="375" cy="192" rx="18" ry="10" fill="#FFFFFF"/>
  <circle cx="375" cy="192" r="8" fill="#5C3317"/>
  <circle cx="378" cy="189" r="3" fill="#FFFFFF"/>
  <!-- Eye shadow -->
  <path d="M358 185 Q375 180 392 185" stroke="#8B3A8B" strokeWidth="4" fill="none" opacity="0.7"/>
  <!-- Eyelashes -->
  <path d="M358 187 L355 183 M363 185 L361 180 M370 183 L369 178 M377 183 L376 178 M384 183 L383 178 M390 185 L392 180 M395 187 L398 183" stroke="#1A0A00" strokeWidth="1.5" fill="none"/>

  <ellipse cx="425" cy="192" rx="18" ry="10" fill="#FFFFFF"/>
  <circle cx="425" cy="192" r="8" fill="#5C3317"/>
  <circle cx="428" cy="189" r="3" fill="#FFFFFF"/>
  <path d="M408 185 Q425 180 442 185" stroke="#8B3A8B" strokeWidth="4" fill="none" opacity="0.7"/>
  <path d="M408 187 L405 183 M413 185 L411 180 M420 183 L419 178 M427 183 L426 178 M434 183 L433 178 M440 185 L442 180 M445 187 L448 183" stroke="#1A0A00" strokeWidth="1.5" fill="none"/>

  <!-- Nose -->
  <path d="M398 200 Q395 215 388 222 Q400 226 412 222 Q405 215 402 200" fill="#F0C090" opacity="0.4"/>
  <!-- Lips (full, lipstick) -->
  <path d="M383 238 Q390 233 400 235 Q410 233 417 238 Q410 248 400 250 Q390 248 383 238Z" fill="#E63946"/>
  <path d="M383 238 Q395 242 400 241 Q405 242 417 238" stroke="#C0392B" strokeWidth="1" fill="none"/>

  <!-- Vanity table -->
  <rect x="100" y="410" width="600" height="20" rx="6" fill="#D4A96E"/>
  <rect x="100" y="405" width="600" height="12" rx="4" fill="#E8C090"/>
  <!-- Table legs -->
  <rect x="130" y="430" width="20" height="120" rx="4" fill="#C9A96E"/>
  <rect x="650" y="430" width="20" height="120" rx="4" fill="#C9A96E"/>

  <!-- Beauty products on table -->
  <!-- Lipstick -->
  <rect x="150" y="375" width="16" height="32" rx="4" fill="#C9A96E"/>
  <rect x="152" y="362" width="12" height="16" rx="3" fill="#E63946"/>
  <!-- Foundation bottle -->
  <rect x="185" y="360" width="24" height="48" rx="8" fill="#F5C5A3"/>
  <rect x="189" y="356" width="16" height="8" rx="4" fill="#E8B896"/>
  <!-- Mascara -->
  <rect x="225" y="368" width="12" height="40" rx="5" fill="#1A1A1A"/>
  <ellipse cx="231" cy="408" rx="8" ry="4" fill="#333333"/>
  <!-- Brush -->
  <rect x="252" y="358" width="8" height="50" rx="4" fill="#C9A96E"/>
  <ellipse cx="256" cy="357" rx="8" ry="12" fill="#F5C5A3" opacity="0.8"/>
  <!-- Perfume bottle -->
  <rect x="275" y="362" width="35" height="45" rx="6" fill="#D4EEFF"/>
  <rect x="282" y="355" width="21" height="10" rx="4" fill="#AED6F1"/>
  <rect x="288" y="350" width="9" height="8" rx="2" fill="#888888"/>
  <text x="292" y="390" textAnchor="middle" fontFamily="serif" fontSize="7" fill="#666666">Glam</text>
  <!-- Eye shadow palette -->
  <rect x="328" y="376" width="60" height="32" rx="4" fill="#C9A96E"/>
  <rect x="332" y="380" width="12" height="12" rx="2" fill="#8B3A8B"/>
  <rect x="348" y="380" width="12" height="12" rx="2" fill="#E63946"/>
  <rect x="364" y="380" width="12" height="12" rx="2" fill="#F39C12"/>
  <rect x="380" y="380" width="4" height="12" rx="1" fill="#2196F3"/>
  <rect x="332" y="396" width="12" height="8" rx="2" fill="#FFB800"/>
  <rect x="348" y="396" width="12" height="8" rx="2" fill="#4CAF50"/>
  <rect x="364" y="396" width="12" height="8" rx="2" fill="#E91E63"/>
  <!-- Rose -->
  <circle cx="470" cy="390" r="22" fill="#FFB3C1"/>
  <circle cx="455" cy="385" r="14" fill="#FF8FAB"/>
  <circle cx="480" cy="383" r="12" fill="#FF8FAB"/>
  <circle cx="465" cy="375" r="10" fill="#FF4D6D"/>
  <path d="M470 412 Q465 430 460 440" stroke="#4CAF50" strokeWidth="3" fill="none"/>
  <ellipse cx="453" cy="432" rx="10" ry="6" fill="#4CAF50" transform="rotate(-30 453 432)"/>

  <!-- Studio name sign -->
  <rect x="270" y="510" width="260" height="60" rx="10" fill="#2C2C2C"/>
  <text x="400" y="538" textAnchor="middle" fontFamily="serif" fontSize="16" fill="#C9A96E">גלאם סטודיו</text>
  <text x="400" y="558" textAnchor="middle" fontFamily="sans-serif" fontSize="10" fill="#888888">Glam Studio | Beauty &amp; Makeup</text>

  <!-- Sparkles / glamour dots -->
  <text x="80" y="200" fontSize="28" fill="#FFD700" opacity="0.6">✦</text>
  <text x="700" y="150" fontSize="20" fill="#FFD700" opacity="0.5">✦</text>
  <text x="680" y="330" fontSize="16" fill="#E63946" opacity="0.4">✦</text>
  <text x="100" y="350" fontSize="18" fill="#C9A96E" opacity="0.5">✦</text>
</svg>
