<svg xmlns="http://www.w3.org/2000/svg" viewBox="0 0 800 600" fill="none">
  <!-- Sky background -->
  <rect width="800" height="600" fill="#87CEEB"/>
  <!-- Sky gradient -->
  <rect x="0" y="0" width="800" height="300" fill="#B8D4E8" opacity="0.5"/>

  <!-- Sun -->
  <circle cx="680" cy="80" r="50" fill="#FFD700" opacity="0.8"/>
  <circle cx="680" cy="80" r="40" fill="#FFE44D"/>

  <!-- Clouds -->
  <ellipse cx="150" cy="90" rx="70" ry="30" fill="#FFFFFF" opacity="0.9"/>
  <ellipse cx="110" cy="95" rx="45" ry="25" fill="#FFFFFF" opacity="0.9"/>
  <ellipse cx="195" cy="95" rx="45" ry="25" fill="#FFFFFF" opacity="0.9"/>

  <ellipse cx="450" cy="60" rx="55" ry="22" fill="#FFFFFF" opacity="0.8"/>
  <ellipse cx="410" cy="65" rx="38" ry="20" fill="#FFFFFF" opacity="0.8"/>
  <ellipse cx="490" cy="65" rx="38" ry="20" fill="#FFFFFF" opacity="0.8"/>

  <!-- Ground/grass -->
  <rect x="0" y="490" width="800" height="110" fill="#5D8A3C"/>
  <rect x="0" y="488" width="800" height="8" fill="#4A7A2E"/>

  <!-- Main house (large, modern) -->
  <!-- House body -->
  <rect x="180" y="280" width="380" height="220" rx="4" fill="#FFFFFF"/>
  <!-- Roof -->
  <polygon points="160,280 370,140 580,280" fill="#C0392B"/>
  <polygon points="175,280 370,155 565,280" fill="#E74C3C"/>
  <!-- Chimney -->
  <rect x="460" y="145" width="30" height="60" fill="#A93226"/>
  <rect x="455" y="143" width="40" height="8" rx="2" fill="#922B21"/>
  <!-- Smoke -->
  <path d="M475 143 Q468 125 475 108 Q482 92 475 78" stroke="#CCCCCC" strokeWidth="3" fill="none" strokeLinecap="round" opacity="0.7"/>

  <!-- Front door -->
  <rect x="330" y="380" width="80" height="120" rx="6" fill="#8B4513"/>
  <rect x="335" y="385" width="70" height="110" rx="4" fill="#A0522D"/>
  <circle cx="400" cy="442" r="6" fill="#FFD700"/>
  <!-- Door arch -->
  <path d="M330 380 Q370 355 410 380" fill="#8B4513"/>

  <!-- Windows -->
  <!-- Left window -->
  <rect x="210" y="320" width="90" height="75" rx="4" fill="#AED6F1"/>
  <rect x="215" y="325" width="80" height="65" rx="2" fill="#D4EEFF"/>
  <line x1="255" y1="325" x2="255" y2="390" stroke="#FFFFFF" strokeWidth="3"/>
  <line x1="215" y1="357" x2="295" y2="357" stroke="#FFFFFF" strokeWidth="3"/>
  <rect x="207" y="317" width="106" height="8" rx="3" fill="#E0E0E0"/>

  <!-- Right window -->
  <rect x="440" y="320" width="90" height="75" rx="4" fill="#AED6F1"/>
  <rect x="445" y="325" width="80" height="65" rx="2" fill="#D4EEFF"/>
  <line x1="485" y1="325" x2="485" y2="390" stroke="#FFFFFF" strokeWidth="3"/>
  <line x1="445" y1="357" x2="525" y2="357" stroke="#FFFFFF" strokeWidth="3"/>
  <rect x="437" y="317" width="106" height="8" rx="3" fill="#E0E0E0"/>

  <!-- Garage -->
  <rect x="180" y="380" width="100" height="120" rx="4" fill="#ECEFF1"/>
  <rect x="188" y="390" width="84" height="100" rx="2" fill="#CFD8DC"/>
  <!-- Garage door lines -->
  <line x1="188" y1="415" x2="272" y2="415" stroke="#AAAAAA" strokeWidth="2"/>
  <line x1="188" y1="440" x2="272" y2="440" stroke="#AAAAAA" strokeWidth="2"/>
  <line x1="188" y1="465" x2="272" y2="465" stroke="#AAAAAA" strokeWidth="2"/>
  <circle cx="230" cy="440" r="5" fill="#888888"/>

  <!-- Garden path -->
  <path d="M330 500 L350 490 L390 490 L410 500" fill="#C4A882"/>
  <path d="M350 500 L370 495 L370 500 Z" fill="#B8996E"/>

  <!-- Bushes -->
  <circle cx="290" cy="490" r="22" fill="#4CAF50"/>
  <circle cx="270" cy="492" r="16" fill="#388E3C"/>
  <circle cx="310" cy="492" r="16" fill="#388E3C"/>
  <circle cx="510" cy="490" r="22" fill="#4CAF50"/>
  <circle cx="490" cy="492" r="16" fill="#388E3C"/>
  <circle cx="530" cy="492" r="16" fill="#388E3C"/>

  <!-- Tree -->
  <rect x="640" y="370" width="14" height="130" fill="#795548"/>
  <circle cx="647" cy="340" r="65" fill="#388E3C"/>
  <circle cx="615" cy="360" r="45" fill="#4CAF50"/>
  <circle cx="680" cy="355" r="48" fill="#4CAF50"/>

  <!-- For Sale Sign -->
  <rect x="560" y="380" width="90" height="70" rx="4" fill="#FFFFFF" stroke="#E63946" strokeWidth="3"/>
  <rect x="601" y="450" width="8" height="50" fill="#8B8B8B"/>
  <text x="605" y="405" textAnchor="middle" fontFamily="sans-serif" fontSize="11" fontWeight="bold" fill="#E63946">למכירה</text>
  <text x="605" y="420" textAnchor="middle" fontFamily="sans-serif" fontSize="9" fill="#2D2D2D">דני נדל״ן</text>
  <text x="605" y="438" textAnchor="middle" fontFamily="sans-serif" fontSize="8" fill="#666666">03-555-1234</text>

  <!-- Agent figure (Danny) -->
  <circle cx="100" cy="370" r="28" fill="#D4A574"/>
  <!-- Suit -->
  <rect x="75" y="398" width="50" height="65" rx="6" fill="#2C3E50"/>
  <!-- Tie -->
  <path d="M98 398 L102 420 L100 435 L98 420 Z" fill="#E63946"/>
  <!-- Arm holding document -->
  <rect x="125" y="415" width="50" height="8" rx="4" fill="#2C3E50"/>
  <rect x="170" y="408" width="40" height="50" rx="3" fill="#FFFDE7" stroke="#DDCC88" strokeWidth="1"/>
  <line x1="176" y1="418" x2="204" y2="418" stroke="#AAAAAA" strokeWidth="1"/>
  <line x1="176" y1="426" x2="204" y2="426" stroke="#AAAAAA" strokeWidth="1"/>
  <line x1="176" y1="434" x2="200" y2="434" stroke="#AAAAAA" strokeWidth="1"/>

  <!-- Hebrew overlay text on house -->
  <rect x="250" y="450" width="240" height="30" rx="4" fill="#2C3E50" opacity="0.85"/>
  <text x="370" y="470" textAnchor="middle" fontFamily="serif" fontSize="13" fill="#FFFFFF">3 חדרים | 120 מ״ר | 2,800,000 ₪</text>
</svg>
