<svg xmlns="http://www.w3.org/2000/svg" viewBox="0 0 800 600" fill="none">
  <!-- Background -->
  <rect width="800" height="600" fill="#FFF8F0"/>

  <!-- Table -->
  <ellipse cx="400" cy="420" rx="220" ry="40" fill="#D4956A"/>
  <rect x="180" y="420" width="440" height="20" rx="4" fill="#C4845A"/>
  <rect x="270" y="440" width="30" height="80" fill="#C4845A"/>
  <rect x="500" y="440" width="30" height="80" fill="#C4845A"/>

  <!-- Tablecloth -->
  <ellipse cx="400" cy="418" rx="210" ry="35" fill="#FFFFFF"/>
  <ellipse cx="400" cy="418" rx="210" ry="35" fill="none" stroke="#E8D5B7" strokeWidth="2" strokeDasharray="8 8"/>

  <!-- Plate -->
  <ellipse cx="400" cy="395" rx="90" ry="20" fill="#F5F0E8"/>
  <ellipse cx="400" cy="393" rx="75" ry="16" fill="#FFFFFF"/>

  <!-- Food on plate -->
  <circle cx="390" cy="390" r="18" fill="#E8956A"/>
  <circle cx="415" cy="388" r="12" fill="#6BAD6B"/>
  <circle cx="395" cy="380" r="8" fill="#D4474F"/>

  <!-- Fork -->
  <rect x="290" y="370" width="4" height="50" rx="2" fill="#B8B8B8"/>
  <rect x="284" y="370" width="4" height="20" rx="2" fill="#B8B8B8"/>
  <rect x="298" y="370" width="4" height="20" rx="2" fill="#B8B8B8"/>

  <!-- Knife -->
  <rect x="506" y="370" width="4" height="50" rx="2" fill="#B8B8B8"/>
  <path d="M510 370 C518 375 518 385 510 390 L510 370Z" fill="#B8B8B8"/>

  <!-- Wine glass -->
  <path d="M500 290 Q500 330 480 350 L520 350 Q500 330 500 290Z" fill="#AED9E0" opacity="0.7"/>
  <rect x="497" y="350" width="6" height="30" fill="#AED9E0" opacity="0.7"/>
  <rect x="485" y="378" width="30" height="4" rx="2" fill="#AED9E0" opacity="0.7"/>
  <ellipse cx="500" cy="290" rx="22" ry="8" fill="#AED9E0" opacity="0.5"/>

  <!-- Bread basket -->
  <ellipse cx="280" cy="380" rx="45" ry="18" fill="#E8C97A"/>
  <path d="M238 375 Q260 360 280 365 Q300 360 322 375" stroke="#C4A05A" strokeWidth="2" fill="none"/>
  <ellipse cx="265" cy="368" rx="12" ry="8" fill="#D4A85A"/>
  <ellipse cx="285" cy="363" rx="10" ry="7" fill="#D4A85A"/>

  <!-- Steam from food -->
  <path d="M380 360 Q375 348 380 336" stroke="#CCCCCC" strokeWidth="2" fill="none" opacity="0.6" strokeLinecap="round"/>
  <path d="M400 355 Q395 340 400 326" stroke="#CCCCCC" strokeWidth="2" fill="none" opacity="0.6" strokeLinecap="round"/>
  <path d="M420 358 Q415 345 420 332" stroke="#CCCCCC" strokeWidth="2" fill="none" opacity="0.6" strokeLinecap="round"/>

  <!-- Waiter figure (simplified) -->
  <circle cx="165" cy="200" r="35" fill="#F5C5A3"/>
  <rect x="140" y="235" width="50" height="80" rx="8" fill="#1A1A2E"/>
  <!-- Bow tie -->
  <path d="M155 250 L175 258 L155 266 Z" fill="#FFFFFF"/>
  <path d="M175 250 L155 258 L175 266 Z" fill="#FFFFFF"/>
  <!-- Arm with tray -->
  <rect x="185" y="245" width="80" height="8" rx="4" fill="#1A1A2E"/>
  <ellipse cx="268" cy="241" rx="35" ry="6" fill="#D4956A"/>
  <!-- Dishes on tray -->
  <ellipse cx="255" cy="238" rx="12" ry="4" fill="#FFFFFF"/>
  <ellipse cx="280" cy="237" rx="10" ry="4" fill="#FFFFFF"/>

  <!-- Window/arch in background -->
  <path d="M580 100 L580 300 Q580 340 620 340 Q660 340 660 300 L660 100 Z" fill="#B8D4E8" opacity="0.4"/>
  <path d="M580 100 Q620 60 660 100" fill="#B8D4E8" opacity="0.4"/>
  <line x1="620" y1="100" x2="620" y2="340" stroke="#8BAEC8" strokeWidth="2" opacity="0.6"/>

  <!-- Hanging lamp -->
  <line x1="400" y1="60" x2="400" y2="140" stroke="#8B7355" strokeWidth="3"/>
  <path d="M365 140 Q365 200 400 200 Q435 200 435 140 Z" fill="#F5D878" opacity="0.8"/>
  <ellipse cx="400" cy="140" rx="35" ry="8" fill="#C4A455"/>

  <!-- Hebrew text area hint (decorative) -->
  <rect x="550" y="120" width="120" height="60" rx="8" fill="#FFFFFF" opacity="0.9"/>
  <text x="610" y="148" textAnchor="middle" fontFamily="serif" fontSize="11" fill="#2D2D2D">מסעדת</text>
  <text x="610" y="168" textAnchor="middle" fontFamily="serif" fontSize="11" fill="#2D2D2D">הים התיכון</text>

  <!-- Decorative olive branch -->
  <path d="M50 500 Q80 460 120 480 Q100 490 90 510" stroke="#6BAD6B" strokeWidth="2" fill="none"/>
  <ellipse cx="75" cy="468" rx="10" ry="6" fill="#6BAD6B" transform="rotate(-30 75 468)"/>
  <ellipse cx="100" cy="472" rx="10" ry="6" fill="#6BAD6B" transform="rotate(10 100 472)"/>
  <ellipse cx="112" cy="488" rx="10" ry="6" fill="#6BAD6B" transform="rotate(-20 112 488)"/>
  <circle cx="85" cy="475" r="5" fill="#8B2252"/>
  <circle cx="108" cy="480" r="4" fill="#8B2252"/>
</svg>
